<svg id="visual" viewBox="0 0 900 600" width="900" height="600" xmlns="http://www.w3.org/2000/svg" xmlns:xlink="http://www.w3.org/1999/xlink" version="1.1"><rect x="0" y="0" width="900" height="600" fill="#f3daff"></rect><defs><linearGradient id="grad1_0" x1="33.3%" y1="100%" x2="100%" y2="0%"><stop offset="20%" stop-color="#f3daff" stop-opacity="1"></stop><stop offset="80%" stop-color="#f3daff" stop-opacity="1"></stop></linearGradient></defs><defs><linearGradient id="grad2_0" x1="0%" y1="100%" x2="66.7%" y2="0%"><stop offset="20%" stop-color="#f3daff" stop-opacity="1"></stop><stop offset="80%" stop-color="#f3daff" stop-opacity="1"></stop></linearGradient></defs><g transform="translate(900, 600)"><path d="M-324.5 0C-304.6 -21.1 -284.8 -42.1 -274 -62.5C-263.2 -82.9 -261.4 -102.7 -258.6 -124.5C-255.7 -146.4 -251.8 -170.3 -242.4 -193.3C-233 -216.3 -218.1 -238.3 -196.4 -246.3C-174.7 -254.3 -146.1 -248.3 -125.4 -260.4C-104.7 -272.5 -91.8 -302.7 -72.2 -316.4C-52.6 -330.1 -26.3 -327.3 0 -324.5L0 0Z" fill="#6600FF"></path></g><g transform="translate(0, 0)"><path d="M324.5 0C311.1 21.6 297.8 43.2 293.5 67C289.1 90.7 293.9 116.6 288.3 138.8C282.7 161.1 266.8 179.6 252.5 201.4C238.3 223.2 225.7 248.2 202.3 253.7C179 259.2 144.8 245.3 122.4 254.1C99.9 262.9 89.2 294.5 70.8 310C52.3 325.6 26.2 325 0 324.5L0 0Z" fill="#6600FF"></path></g></svg>